<svg id="Layer_1" data-name="Layer 1" xmlns="http://www.w3.org/2000/svg" width="50mm" height="49.98mm" viewBox="0 0 141.73 141.67"><path d="M70.85,141.67C33.15,142.13.23,111.28,0,71.31-.23,30.74,33.36-.8,72.43,0c36.35.76,69.87,30.5,69.3,72C141.18,112.06,108.07,142.14,70.85,141.67Zm-21-70.51h6.92c2.44,0,2.44,0,2.44,2.4,0,13.73,0,27.46,0,41.19,0,1.7.45,2.3,2.23,2.25q7.15-.18,14.3,0c1.77,0,2.22-.51,2.21-2.24-.07-13.84,0-27.69-.08-41.53,0-1.7.37-2.34,2.17-2.25,2.86.15,5.74,0,8.61.07,1.37,0,2.1-.3,2.2-1.82.21-3.31.56-6.62.85-9.94.1-1.22.18-2.45.29-3.89H77.89c0-3.35,0-6.5,0-9.65,0-2.9,1-3.89,4-3.92s5.75,0,8.62,0c.91,0,1.54-.13,1.53-1.29,0-4.59,0-9.19-.07-13.78a1.68,1.68,0,0,0-1.16-1.18c-6.07.13-12.2-.05-18.2.68-8,1-12.8,6.59-13.17,14.56-.19,4.3-.19,8.61-.19,12.92,0,1.34-.41,1.79-1.78,1.73-2.51-.11-5,0-7.6,0Z"/></svg>