<svg id="Layer_1" data-name="Layer 1" xmlns="http://www.w3.org/2000/svg" width="50mm" height="48.49mm" viewBox="0 0 141.73 137.46"><path d="M56.78,101.92c-2.27,5.29-3.18,11.34-10.74,11-6.28-.24-10.33-3.61-13.66-8.56-3-4.48-7-7.34-14.07-5.67,10.93,9.58,13.37,29.29,33.58,22.6.74,1.17,1.25,1.6,1.21,2-.4,4.47-.88,8.92-1.34,13.38-4.54-1.2-9.48-1.64-13.57-3.73A70.26,70.26,0,0,1,2.36,52.5C11.14,19.84,40-1.11,74.69.05c32,1.06,59.55,24.86,65.73,56.86a70.53,70.53,0,0,1-40.63,78.2c-9.5,4.22-10.86,3.23-11.06-6.93-.17-8.61-.85-17.21-1.35-26.56.82-.2,3.57-.83,6.29-1.58,19.78-5.51,29.38-29,19.61-47.22-1.77-3.28-2-7.47-2.58-11.28-.39-2.39,0-4.9-.41-7.3-.7-4.64-3.24-7.82-7.89-4.73-10.21,6.76-21.24,5.05-32.29,4.3a16.79,16.79,0,0,0-5.85.29c-7.55,2.33-14,.13-20.78-3.31-9-4.56-12.44-2.51-11.73,7.66C32.24,45.4,30,50.7,27.6,56.76,19.13,77.93,31.66,97.19,56.78,101.92Z"/></svg>