<svg id="Layer_1" data-name="Layer 1" xmlns="http://www.w3.org/2000/svg" width="50mm" height="49.99mm" viewBox="0 0 141.73 141.7"><path d="M141.73,70.83A70.87,70.87,0,1,1,70.93,0,70.84,70.84,0,0,1,141.73,70.83Zm-26.13.07h-.25c0-5.07.09-10.15,0-15.22a55.13,55.13,0,0,0-.81-9.08c-1.91-9.92-7.74-16.36-17.58-19a48.66,48.66,0,0,0-12.2-1.22c-7.8-.09-15.6-.09-23.39-.06-4.86,0-9.73-.07-14.52.85-10,1.92-16.52,7.68-19.22,17.58a49.11,49.11,0,0,0-1.25,12.61c-.09,8.28-.08,16.57,0,24.85a69.69,69.69,0,0,0,.81,12.58C29,104.65,34.6,111.21,44.36,114c4.11,1.18,8.36,1.28,12.59,1.33,7.77.08,15.54.08,23.32.06A83.88,83.88,0,0,0,95,114.57c6.85-1.24,12.39-4.57,16.19-10.51a28,28,0,0,0,4-14.39C115.38,83.42,115.46,77.16,115.6,70.9Z"/><path d="M107.56,70.88c-.16,6.36-.26,12.73-.48,19.09a19.62,19.62,0,0,1-2.37,9.15c-2.46,4.34-6.34,6.65-11.14,7.52a73.39,73.39,0,0,1-12.91.75c-8.58,0-17.17,0-25.75-.14a31.36,31.36,0,0,1-9-1.16A14.61,14.61,0,0,1,35.25,94.21a52.85,52.85,0,0,1-.82-9.32c-.1-9.66-.06-19.33,0-29a36.4,36.4,0,0,1,1-9.46C37.28,40,41.63,36.31,48.11,35.09c4.45-.84,9-.74,13.48-.77,8,0,16,0,24,.11a36.63,36.63,0,0,1,9.94,1.1c6.28,1.82,9.87,6.09,11.11,12.4.86,4.45.73,9,.8,13.47,0,3.16,0,6.32,0,9.48ZM70.8,93.76A22.9,22.9,0,1,0,48,70.74,22.9,22.9,0,0,0,70.8,93.76ZM100,47.08a5.3,5.3,0,0,0-5.29-5.38A5.35,5.35,0,1,0,100,47.08Z"/><path d="M56,70.43a14.87,14.87,0,1,1,14.27,15.3A14.91,14.91,0,0,1,56,70.43Z"/></svg>