<svg id="Layer_1" data-name="Layer 1" xmlns="http://www.w3.org/2000/svg" width="50mm" height="50.05mm" viewBox="0 0 141.73 141.87"><path d="M71.76,141.87H69.82a3.26,3.26,0,0,0-.6-.14c-1.54-.11-3.08-.19-4.62-.32s-2.8-.24-4.19-.45A70.84,70.84,0,0,1,1,83.06a66.68,66.68,0,0,1-1-9.14A72.85,72.85,0,0,1,.42,63.07a77.5,77.5,0,0,1,1.35-8A71,71,0,0,1,46.63,4.27a67.47,67.47,0,0,1,14-3.51c2.23-.31,4.5-.44,6.75-.63A57.57,57.57,0,0,1,75.88.2a70.61,70.61,0,0,1,29.69,8.93,70.54,70.54,0,0,1,35,49.63,59.64,59.64,0,0,1,.81,6.66c.07,1.17.09,2.35.15,3.52,0,.3.11.58.16.88v2.07c0,.32-.14.63-.16.94-.1,1.68-.16,3.37-.28,5a59.44,59.44,0,0,1-1.32,8.4A70.93,70.93,0,0,1,96.23,137,68.8,68.8,0,0,1,75,141.56c-.88.05-1.75.1-2.63.17A3.16,3.16,0,0,0,71.76,141.87Zm6-29.56v-1q0-13.51,0-27,0-2.14.12-4.29A14.21,14.21,0,0,1,79,75a9.06,9.06,0,0,1,6.58-5.6,12.64,12.64,0,0,1,4.67-.22,8,8,0,0,1,5.5,3.13,10.69,10.69,0,0,1,1.72,3.6A22.38,22.38,0,0,1,98.2,82q0,11.85,0,23.69c0,2,0,3.93,0,5.89,0,.73.08.8.79.81h16.14c1.15,0,1.15,0,1.15-1.13q0-16.42,0-32.84,0-2.7-.12-5.4a25.62,25.62,0,0,0-1.7-8.16,17.92,17.92,0,0,0-11.51-11.09,23.84,23.84,0,0,0-11.19-.93,19.9,19.9,0,0,0-12.23,6.71c-.59.67-1.12,1.4-1.75,2.19,0-1.28,0-2.47,0-3.66s0-2.43,0-3.66H60.43c0,.38,0,.72,0,1.06q0,27.89,0,55.77c0,.21,0,.42,0,.62a.47.47,0,0,0,.53.51h16C77.16,112.38,77.41,112.34,77.77,112.31ZM31.09,54.41c0,.36-.07.68-.07,1v55.91c0,1.05,0,1.07,1,1.07H48.18l.56,0a.42.42,0,0,0,.44-.44c0-.27,0-.55,0-.83V55.6c0-.23,0-.46,0-.69s-.07-.31-.11-.5Zm-1.77-18.2A10.7,10.7,0,1,0,40,25.43,10.77,10.77,0,0,0,29.32,36.21Z"/></svg>