<svg xmlns="http://www.w3.org/2000/svg" width="321.44" height="336.01" viewBox="0 0 321.44 336.01"><g id="Layer_2" data-name="Layer 2"><g id="Layer_1-2" data-name="Layer 1"><path d="M161.86,64.63c.19.69-1.43,3.88-9.68,6.15-11.26,3.1-14.83,4-15.16,4s-2.22-3-3.6-8c-2.91-10.56-.34-23.22-.53-23.91-3.61-13.12-8.28-17.72-9-18.44,1.52-2,4.11-4.37,9.2-5.77a7.72,7.72,0,0,1,1.66.62A7.53,7.53,0,0,1,136,22.13c2.85,10.34-.93,25.24-.74,25.93,4.16,15.12,10,20.4,12.64,21.83,5.82-5.09,7-13.71,7.38-14.81C157.32,55.67,160.6,60.08,161.86,64.63Z" transform="translate(-8.36 -8.08)"/><path d="M175.94,9a5.47,5.47,0,0,1,.8,2.6c.31,5.19-3.72,9-9.15,9.28a13.22,13.22,0,0,0-4.27-8.41S169,8.39,174.2,8.08A9.28,9.28,0,0,1,175.94,9Zm-.71,17.67a8.53,8.53,0,0,1,1.5,1,7.79,7.79,0,0,1,.58,3c.44,7.51-7,16.6-7,17.32.46,7.67,6,14.87,7.79,16.37-1.05,1.19-6.29,3.42-10.6,3.68a7.86,7.86,0,0,1-1.5-1,13.6,13.6,0,0,1-1.64-5.91c-.55-9.34,4.75-15.91,4.71-16.63-.39-6.47-1.93-10.78-5.09-14C165.9,28.85,169.72,27,175.23,26.69Z" transform="translate(-8.36 -8.08)"/><path d="M213.6,68.88c-1.29.92-6.89,1.93-11.15,1.21a8.28,8.28,0,0,1-1.25-1.26,13.63,13.63,0,0,1-.27-6.13c1.55-9.23,8.18-14.45,8.3-15.16.91-5.44.7-9.53-.82-13-5.91.39-15.37,9.92-18.78,13.32-1.27,7.57,2.54,15.84,3.93,17.69-1.29.92-6.89,1.93-11.15,1.22a8.38,8.38,0,0,1-1.25-1.27,13.62,13.62,0,0,1-.27-6.13c1.55-9.23,8.18-14.44,8.3-15.15,1.07-6.4.14-11-2.21-14.89,2.22-1.17,6.35-2.1,11.79-1.19A7.85,7.85,0,0,1,200,29.37a5.9,5.9,0,0,1,0,2.51,17.52,17.52,0,0,1-1.82,5.05c6.19-5.45,11-7.08,11.24-7C216,31,220.06,33.7,220.26,34a3.37,3.37,0,0,1,.09,1.88c-1.24,7.42-10.56,14.62-10.68,15.33C208.4,58.76,212.21,67,213.6,68.88Z" transform="translate(-8.36 -8.08)"/><path d="M239.9,75.78a1.94,1.94,0,0,1-.25,1.47c-2.15,1.2-10.33,3.71-13.73,2.11-8.46-4-10.5-11.86-5.73-22,4.61-9.76,15.54-19.82,26.4-14.7,6.22,2.93,8.64,7.17,8.66,7.88-3.35,7.1-9.83,11.29-10.62,11.45-1.07.2-6.37-.18-16.69-2.3C225,71,231.1,75.52,232.18,76c1.52.72,4.08,0,6.81-1A4,4,0,0,1,239.9,75.78Zm-9.67-22.25a35.12,35.12,0,0,0-1.62,4c8.44,1.41,13.42.4,15.87-.65.75-4.6-.69-11.47-4.64-13.24C238.88,43.81,233.75,46.08,230.23,53.53Z" transform="translate(-8.36 -8.08)"/><path d="M291.2,101.74c-11.16,9.73-26.48,8.23-33.73-.09-4.47-5.12-4.14-9.13-4.14-9.24s.92-2.6,5.14-6.28c6.87-6,19.35-9.34,19.89-9.81,10.07-8.78,12.37-15.15,12.72-16.09,2.46.51,5.72,1.81,9.19,5.79a8.15,8.15,0,0,1,.16,1.77,7.77,7.77,0,0,1-2,2.3c-3.43,3-8.53,5.42-13.19,7.26,12-2.52,21.68-3.74,21.84-3.55,4.1,4.7,5,8.79,5,9.12,0,0-.17.9-2.22,2.69-6.51,5.68-16.42,6.25-23.07,5.68C289.36,94.64,292,100.16,291.2,101.74Zm-12.37.07c4.52-4,.93-9.52-1-12.32a1.41,1.41,0,0,1,.58-1c2.41.34,12.09,3,22.58-6.11a14.75,14.75,0,0,0,3.32-3.74c-2.54-1.82-22.7,1.12-30.78,3.17-10.42,9.1-13.26,18.26-11.89,19.83C264.35,104.67,271.36,108.33,278.83,101.81Z" transform="translate(-8.36 -8.08)"/><path d="M291.05,138.61a2,2,0,0,1-1.14,1c-2.42-.45-10.32-3.72-11.92-7.12-4-8.47-.56-15.83,9.57-20.6,9.77-4.6,24.6-5.4,29.72,5.45,2.93,6.23,2.1,11,1.66,11.6-7.1,3.34-14.77,2.45-15.48,2.07-.95-.52-4.8-4.19-11.41-12.4-9.43,6.83-7.63,14.21-7.12,15.3.72,1.52,3.16,2.58,5.86,3.6A4.32,4.32,0,0,1,291.05,138.61Zm6.7-23.32a34.67,34.67,0,0,0-3.81,2.06c5.61,6.47,10.1,8.86,12.66,9.6,3.51-3.07,6.77-9.29,4.85-13.16C310.61,113.3,305.2,111.78,297.75,115.29Z" transform="translate(-8.36 -8.08)"/><path d="M326.81,149.07a7.72,7.72,0,0,1-.74,1.62,6,6,0,0,1-2.35.88c-7.92,1.59-17.89-4.15-18.59-4-7.53,1.51-13.9,8-15.13,10-1.32-.87-4.26-5.75-5.11-10a8.4,8.4,0,0,1,.73-1.61,13.72,13.72,0,0,1,5.63-2.44c9.18-1.84,16.42,2.5,17.12,2.35,6.36-1.27,10.34-3.79,13.13-7.37C323.38,140.13,325.72,143.66,326.81,149.07Zm-.14,13.9c-6.75,1.36-10.45-.83-10.74-1,.36-.64,2.65-4.29,1.86-8.21,2.28-.45,11,2.85,12,7.79A6,6,0,0,1,326.67,163Z" transform="translate(-8.36 -8.08)"/><path d="M290.41,202.9c-1-1.19-2.58-6.68-2.28-11a7.81,7.81,0,0,1,1.14-1.37,13.7,13.7,0,0,1,6.07-.86c9.34.65,15.17,6.75,15.89,6.8,5.5.39,9.55-.21,12.89-2.06-1-5.84-11.35-14.35-15.06-17.41-7.66-.54-15.52,4-17.24,5.61-1-1.19-2.58-6.68-2.28-11a8.28,8.28,0,0,1,1.14-1.37,13.72,13.72,0,0,1,6.08-.86c9.33.65,15.16,6.75,15.88,6.8,6.46.46,11-.91,14.61-3.63,1.38,2.1,2.7,6.12,2.31,11.63a8.11,8.11,0,0,1-1.13,1.37,6.08,6.08,0,0,1-2.51.22,17.54,17.54,0,0,1-5.2-1.32c6,5.63,8.11,10.27,8.09,10.51-.46,6.62-2.77,10.95-3,11.17a3.37,3.37,0,0,1-1.87.27c-7.5-.52-15.56-9.1-16.28-9.15C300,196.75,292.12,201.34,290.41,202.9Z" transform="translate(-8.36 -8.08)"/><path d="M286.11,229.75a2,2,0,0,1-1.49-.11c-1.4-2-4.7-9.92-3.43-13.46,3.15-8.81,10.78-11.61,21.33-7.84,10.17,3.64,21.24,13.55,17.2,24.85-2.32,6.48-6.31,9.3-7,9.39-7.38-2.64-12.18-8.69-12.42-9.46-.3-1-.44-6.36.67-16.84-11.5-1.82-15.43,4.68-15.84,5.81-.57,1.58.42,4.06,1.6,6.69A3.87,3.87,0,0,1,286.11,229.75ZM307.32,218a36.76,36.76,0,0,0-4.15-1.22c-.59,8.54.9,13.4,2.19,15.73,4.65.31,11.35-1.8,12.73-5.89C317.83,225.63,315.08,220.74,307.32,218Z" transform="translate(-8.36 -8.08)"/><path d="M304.06,262.39a8.08,8.08,0,0,1-1.66.63,6.08,6.08,0,0,1-2.29-1c-6.74-4.46-9.75-15.57-10.35-16-6.4-4.24-15.5-4.12-17.76-3.6-.31-1.56,1-7.09,3.43-10.69a7.66,7.66,0,0,1,1.66-.62,13.58,13.58,0,0,1,5.71,2.24c7.8,5.16,9.87,13.34,10.47,13.74,5.41,3.58,10,4.6,14.5,4C307.94,253.64,307.11,257.79,304.06,262.39Zm-9.9,9.76c-5.74-3.8-6.82-8-6.89-8.3.71-.2,4.9-1.17,7.11-4.51,1.93,1.28,5.8,9.79,3,14A5.89,5.89,0,0,1,294.16,272.15Z" transform="translate(-8.36 -8.08)"/><path d="M166.11,334.12c-.56-14.47,5.8-30,16.28-30.41,4.63-.18,8.48,4.15,10.43,7-1.34-14-6.32-18.57-6.82-19,1.08-1.16,6-3.28,10-3.43a8.22,8.22,0,0,1,1.48,1c.69,1.25,1.41,3.31,1.57,7.54.42,11-5,22.69-4.94,23.41.53,13.59,4,19.14,4.54,20-1.94,1.6-5.16,3.33-10.35,3.53a8.3,8.3,0,0,1-1.48-1,12.4,12.4,0,0,1-.36-3,35.09,35.09,0,0,1,1.4-9.51c-4.79,8.76-9.71,13.91-10,13.92-6.64.26-10-1.61-10.24-1.85C167.62,342.07,166.33,339.8,166.11,334.12Zm7-10.52c.47,12.23,2.9,14.86,3.22,14.85,3.67-.15,12.38-13.13,14.85-19.47-2.06-5.69-8.5-10.8-14-10.59C175.92,308.44,172.76,313.53,173.15,323.6Z" transform="translate(-8.36 -8.08)"/><path d="M131.84,306.27c2.45-10.43,11.13-23.27,22.5-20.6,8.64,2,11.86,8.62,9.47,19.15s-11.2,23.25-22.57,20.58C132.59,323.38,129.37,316.79,131.84,306.27Zm23,5.24c3.34-14.26-1.92-22.31-6.43-23.37-.55-.13-5.54,2.24-7.7,11.43-3.34,14.25,1.92,22.3,6.44,23.36C147.7,323.06,152.7,320.7,154.85,311.51Z" transform="translate(-8.36 -8.08)"/><path d="M97.59,303.8c3.14-6.12,7.16-7.65,7.49-7.75.27.68,1.7,4.74,5.26,6.56-1.06,2.07-9.09,6.85-13.58,4.55A6,6,0,0,1,97.59,303.8Zm10.78,8.78a8.15,8.15,0,0,1-.81-1.59,6,6,0,0,1,.78-2.39c3.69-7.18,14.4-11.4,14.73-12,3.51-6.83,2.39-15.86,1.62-18.05,1.51-.49,7.16.26,11,2.23a7.78,7.78,0,0,1,.8,1.58,13.5,13.5,0,0,1-1.6,5.92c-4.27,8.33-12.18,11.29-12.51,11.93-3,5.76-3.47,10.44-2.41,14.86C117.5,315.46,113.28,315.1,108.37,312.58Z" transform="translate(-8.36 -8.08)"/><path d="M97.29,258.05c.27-.08,3.86-.65,9.28,3.83,5.8,4.79,5.65,12.76.76,18.68-6,7.22-18.41,13.12-18.87,13.68-4,4.81-5.26,12.15-5.45,13.13-2.51-.1-6.06-1-10.13-4.32a7.58,7.58,0,0,1-.45-1.72,7.65,7.65,0,0,1,1.63-2.6c5.3-6.41,17.42-9.78,17.88-10.34,9.73-11.78,13.24-19.67,14.38-23.19-4.16-1.36-11.22,3.91-12,4.84C93.11,269,93.18,263.27,97.29,258.05ZM87.06,287.27c-1.43,1.73-10,4.59-14.34,1a5.33,5.33,0,0,1,1.42-3c4.28-5.18,8.43-5.81,8.72-5.78C83,280.21,84,284.77,87.06,287.27Z" transform="translate(-8.36 -8.08)"/><path d="M36.26,270.38c2.66-1.42,8.37-1.09,9.62.47-.8,1.68-3.76,9-1.1,12.28.45.57,4.11.91,9.78-3.66,6.86-5.51,6.94-9.37,10.49-12.23s13.5-5.93,14.06-6.39a29.77,29.77,0,0,0,9-13.36c2.44.6,5.19,1.47,8.55,5.65a7.74,7.74,0,0,1,.09,1.77s-.57,2.1-3.93,4.81c-5.24,4.21-16.67,5.19-17.23,5.64-1.06.85-5.43,10.74-13,16.85-5,4-16.89,7.73-23.25-.18C34.6,276.23,35.7,271.34,36.26,270.38Zm17.83-9.62c5.23-4.21,9.42-4,9.7-3.9,0,.69-.6,4.49,1.85,7.54-1.74,1.41-10.23,3.1-13.54-1A5.26,5.26,0,0,1,54.09,260.76Z" transform="translate(-8.36 -8.08)"/><path d="M49.23,222c9.68-4.6,25.12-5.84,30.14,4.71,3.81,8,.68,14.65-9,19.36-9.71,4.53-25.16,5.77-30.17-4.78C36.34,233.25,39.48,226.62,49.23,222Zm10.28,21.24c13.22-6.28,16.22-15.42,14.23-19.61-.24-.51-5.2-2.93-13.72,1.12C46.8,231,43.79,240.16,45.78,244.35,46,244.85,51,247.28,59.51,243.22Z" transform="translate(-8.36 -8.08)"/><path d="M9,214a8.73,8.73,0,0,1,.66-1.65,7.68,7.68,0,0,1,2.86-1.12c13.5-3.37,28.11.32,28.81.15,20.34-5.08,24.32-12.26,24.73-12.94,1.35.82,4.46,5.32,5.45,9.28a8.47,8.47,0,0,1-.66,1.65c-1.09.93-2.95,2-7.07,3.08-13.74,3.43-26.85,1.1-27.55,1.27-16.38,4.09-21,8.86-21.7,9.54A17.53,17.53,0,0,1,9,214Z" transform="translate(-8.36 -8.08)"/><path d="M9.23,187.07a5.49,5.49,0,0,1,2.57-.9c5.17-.51,9.09,3.37,9.63,8.78a13.18,13.18,0,0,0-8.23,4.59S8.87,194,8.36,188.84A10,10,0,0,1,9.23,187.07Zm17.69,0a8.23,8.23,0,0,1,.9-1.53,7.53,7.53,0,0,1,3-.7c7.49-.74,16.87,6.38,17.59,6.31,7.64-.75,14.62-6.59,16-8.42,1.23,1,3.66,6.16,4.08,10.46a7.64,7.64,0,0,1-.89,1.53,13.73,13.73,0,0,1-5.84,1.86c-9.32.92-16.09-4.12-16.8-4-6.45.63-10.71,2.34-13.84,5.62C29.44,196.33,27.46,192.59,26.92,187.09Z" transform="translate(-8.36 -8.08)"/><path d="M45.48,147.63c10.66,1.17,24.45,8.23,23.18,19.84-1,8.83-7.12,12.82-17.87,11.73-10.64-1.25-24.44-8.31-23.17-19.92C28.59,150.45,34.74,146.45,45.48,147.63Zm-2.41,23.48c14.55,1.59,21.91-4.6,22.42-9.22.06-.55-2.89-5.22-12.28-6.25-14.55-1.59-21.91,4.6-22.41,9.21C30.73,165.41,33.68,170.08,43.07,171.11Z" transform="translate(-8.36 -8.08)"/></g></g></svg>