<svg xmlns="http://www.w3.org/2000/svg" width="165.5" height="246.24" viewBox="0 0 165.5 246.24"><defs><style>.cls-1{fill:#2d55ea;}</style></defs><g id="Layer_2" data-name="Layer 2"><g id="Layer_1-2" data-name="Layer 1"><path class="cls-1" d="M147.25,209.5c-4.29.47-8.61.82-12.87,1.46-1.1.17-2.88,1.35-2.79,1.88a4.2,4.2,0,0,0,2.39,2.59c3.67,1.52,7.67,1.34,11.67,1.15s7.73-.18,11.6-.25a2.31,2.31,0,0,1,.46,0c4.37.65,8,3.65,7.78,6.42-.24,3.18-4.46,6.76-8.68,6.65-5.76-.14-11.51-.77-17.26-1.27-11.88-1-23.29-3.88-34.77-6.41-7.61-1.68-13.54-.3-17.84,5.49A30.29,30.29,0,0,1,80.71,233a10.14,10.14,0,0,1-4.35,1.5c-4.7.72-8.11-1.93-7.15-5.82a20.86,20.86,0,0,1,3.45-6.89c1.83-2.53,4.36-4.71,6.36-7.17,2.44-3,3.43-6.29,2.32-9.91a3.55,3.55,0,0,0-3.47-2.83,6,6,0,0,0-3.59,1.41c-6.13,5.61-9.06,12.5-11,19.71-1.33,4.92-2.23,9.93-3.74,14.81-1.1,3.55-3.9,6.24-8,7.87a6,6,0,0,1-6.32-.72c-1.78-1.39-1.09-3-.14-4.35a56.62,56.62,0,0,1,4.67-5.32,63.25,63.25,0,0,0,5.16-5.51,7.34,7.34,0,0,0,1.41-4.49c-.26-4-3.73-6.05-8.35-4.78a32.14,32.14,0,0,0-7,3.15c-3.22,1.79-6.16,4-9.46,5.63a15.31,15.31,0,0,1-5.82,1.38c-3.29.19-5.27-2.71-3.42-5a13.15,13.15,0,0,1,4.14-3.45c4.88-2.44,9.85-4.8,15-6.88s10.61-3.86,16-5.71c5-1.73,7.51-4.83,7.32-9.3a26,26,0,0,0-.94-6.36,8.31,8.31,0,0,0-2.48-3.52c-2.7-2.38-5.89-2.54-8.6-.19a47.63,47.63,0,0,0-5.48,6.25C45.43,198.63,44,201,42.1,203c-4.23,4.56-11.87,6-18.19,3.51-2.67-1-3.46-2.84-2.05-5,2-3,5.44-4.29,9.33-4.88,1.28-.19,2.58-.26,3.85-.48,1.48-.26,1.72-1.08.74-1.9a7.5,7.5,0,0,0-2.84-1.52c-4.37-1.08-8.86-1.88-13.19-3.07S11.1,187,6.82,185.48A7.37,7.37,0,0,1,4.45,184c-1.53-1.34-2.54-2.87-1.57-4.8S5.89,177,8,177c4.32,0,8,1.63,11.37,3.58s6.51,4,9.75,6c7.12,4.42,17.34,2.51,21.57-4,2.91-4.51.71-10.08-5.22-11.7a126.28,126.28,0,0,0-16.21-3C23,167,16.78,166,11.05,163.59a13.23,13.23,0,0,1-7-5.8c-1.95-3.66.76-7.12,5.52-6.66a42.83,42.83,0,0,1,10.1,2.21c9.75,3.47,19.21,7.39,27.71,12.78,4.29,2.72,6.8,2.22,9.76-1.55A14.72,14.72,0,0,0,59,161.72c2.52-5.28.14-9.4-6.49-10.73-4.06-.82-8.24-1.25-12.39-1.72-6.35-.73-12.72-1.28-19.06-2-3.62-.44-6.9-1.59-9.18-4.17-1.27-1.43-1.74-3-.9-4.64s2.78-2.07,4.78-2.1a89.85,89.85,0,0,1,23,3c9,2.25,17.89,5,26.87,7.39,4.13,1.1,8.37,1.88,12.57,2.77a11.55,11.55,0,0,0,2,.19c4.54.19,6.86-2,6-5.69-2.33-9.85-11.77-15.88-24-15.6-10.22.23-20.45.43-30.66.23-8.91-.18-17.6-1.75-25.4-5.52a19.34,19.34,0,0,1-5.66-4.53,3,3,0,0,1,0-3.25,4.41,4.41,0,0,1,3.51-.9,58,58,0,0,1,8.58,3c3.3,1.44,6.37,3.23,9.63,4.74,2.64,1.22,4.39.31,4.59-2.22.26-3.38-1.39-6.14-4.09-8.55A112.76,112.76,0,0,1,5.54,91.5c-2.78-4-4.8-8.19-4.44-12.92a6.45,6.45,0,0,1,.81-2.72,3.44,3.44,0,0,1,4.78-1.27,18.42,18.42,0,0,1,5.3,4A64,64,0,0,1,23,99.34c2.53,7.82,7.79,13.8,16.94,17.07,6.86,2.45,13.52-.22,15.63-6.2a13.6,13.6,0,0,0-.67-11A90.28,90.28,0,0,0,48.28,88a137.59,137.59,0,0,0-25-27c-4.84-4-10.42-7.39-15.62-11.09C4.4,47.61,1.47,45.05.47,41.4a5.41,5.41,0,0,1,1.74-5.81,4.37,4.37,0,0,1,6.72.35c1.09,1.29,2,2.71,3.17,3.93,1.72,1.77,5.08,3,5.58,2.09a6,6,0,0,0,.6-4.39,20.12,20.12,0,0,0-2.89-5.49c-1.07-1.59-2.53-3-3.75-4.52a7.22,7.22,0,0,1-1.29-6.74c.74-2.78,3.67-4,6.83-2.87a9.11,9.11,0,0,1,5.32,5.19c1,2.18,1.77,4.46,3,6.55a28.61,28.61,0,0,0,3.91,4.84,2.67,2.67,0,0,0,2.09.68C32.19,35,33,34.14,33,33.55a31.53,31.53,0,0,0-.57-4.29,45.92,45.92,0,0,1-.59-7.46C32,19.74,34.1,18.09,36.19,18a4.55,4.55,0,0,1,4.89,2.8c1.23,3.36,2.53,6.81,2.83,10.27.78,9.06,1.2,18.15,1.45,27.24a39,39,0,0,0,7.77,22.1,19.43,19.43,0,0,0,2.59,2.88,9.67,9.67,0,0,0,12.75.34c3.51-2.82,5.18-6.48,6.74-10.2C79.7,62.69,78.48,52.11,74,41.66,71.63,36,68.9,30.45,66.39,24.82c-1.42-3.21-2.56-6.46-1.74-10C66.18,8.3,75.43,4.66,82.31,8.07c3.76,1.86,4.92,5.18,5.15,8.48s-.37,6.67-.55,10a10.38,10.38,0,0,0,.15,3c.56,2.32,2.45,3,4.61,1.46a11.51,11.51,0,0,0,3.75-4.36c1.78-4.09,3.1-8.31,4.63-12.48a23.38,23.38,0,0,1,8-11.3A13.74,13.74,0,0,1,115.11.06c6.2-.59,10.72,3.53,8.66,8.41a26,26,0,0,1-5.23,7.66c-3.3,3.46-7.18,6.54-10.74,9.83-5.32,4.91-8.07,10.64-7.9,17.28a4.8,4.8,0,0,0,3.7,4.95,6,6,0,0,0,6.72-1.65c2.59-3.09,4.81-6.41,7.11-9.67,3.07-4.35,5.79-8.89,9.19-13,1.92-2.34,4.77-4.23,7.46-6.06a11.32,11.32,0,0,1,4.79-1.58c3.57-.41,6.77,2.08,6.72,5.07a12.82,12.82,0,0,1-3.18,8.57c-5,5.7-10,11.47-15.53,16.85C114.62,58.59,102,70.26,89.61,82.1,85.56,86,81.75,90,79.52,94.86a14.74,14.74,0,0,0-.08,12.42,8.62,8.62,0,0,0,14.13,2.27A128.78,128.78,0,0,0,105,95c5.52-7.92,10.59-16.06,16-24a32.09,32.09,0,0,1,10.29-10,26.66,26.66,0,0,1,7.5-3c6.53-1.46,11.25,2.84,9.39,8.27-1,2.81-3.19,4.82-5.83,6.62-3.77,2.56-7.6,5-11.21,7.76a10.89,10.89,0,0,0-3,3.74c-1.1,2.11-.35,4.14,1.41,5.81s3.89,1.17,5.7.4A79.67,79.67,0,0,0,144,86c3.05-1.77,5.77-4,8.88-5.64A18.11,18.11,0,0,1,159,78.48c3.23-.43,4.92,1.11,4.58,3.79a8.53,8.53,0,0,1-4.7,6.66c-6.49,3.4-13.13,6.62-19.73,9.89-9,4.46-18.26,8.66-27,13.47-3.71,2-6.6,5.17-9.53,8-2.42,2.37-2.56,5.33-1.72,8.29.68,2.39,3,3.85,6.19,4a29.77,29.77,0,0,0,14.63-3.2c5.72-2.88,11-6.34,16.51-9.5,3.13-1.8,6.29-3.56,9.53-5.22s6.66-1.61,10.17-.76c4.22,1,5.46,4.1,2.54,6.84a22.9,22.9,0,0,1-5.26,3.61c-3.56,1.81-7.3,3.39-11,5.06-1.67.76-3.42,1.41-5,2.29-2.44,1.36-2.87,3-1.65,5.3.76,1.46,2.82,2.32,5.24,1.83a36.34,36.34,0,0,0,5.73-1.81c2.34-.91,4.5-2.21,6.93-2.88a20,20,0,0,1,6.46-.55c2.42.16,3.56,1.68,2.67,3.54a9.5,9.5,0,0,1-3.39,4.1,43.66,43.66,0,0,1-8.87,3.8c-11.69,3.64-23.86,5.58-36.26,6.81a142.62,142.62,0,0,0-18.61,3,33.5,33.5,0,0,0-22.06,16.23c-3.66,6.33.51,15.55,7.93,19a12.94,12.94,0,0,0,10.35.07,25.19,25.19,0,0,0,6-3.4,164,164,0,0,1,49.43-25.82,26.08,26.08,0,0,1,5-1.21,19,19,0,0,1,5.43,0c4.21.75,5.36,3.63,2.11,5.91a34.68,34.68,0,0,1-9.19,4.4c-7.67,2.46-15.58,4.39-23.23,6.88a26.71,26.71,0,0,0-7.69,4.31c-2.79,2.12-1.71,4.86,2.07,5.32a20.43,20.43,0,0,0,6.75-.4c5.44-1.21,10.73-2.87,16.2-4a26.29,26.29,0,0,1,8.12-.18c4.35.53,5.58,3.56,2.54,6.21a16.26,16.26,0,0,1-5.64,3c-5.45,1.73-11.18,1.58-16.94,1.42a105.14,105.14,0,0,0-14.09.56,19,19,0,0,0-10.56,5c-1.9,1.68-3.06,3.6-2.57,6,.67,3.26,3.36,5.25,7.35,4.89a33.7,33.7,0,0,0,7.48-1.62,143.19,143.19,0,0,1,27.22-6.39,31.51,31.51,0,0,1,7.7.14c2,.26,3.68,1.32,4,3.19.29,1.65-1.11,3.73-3.41,4.26-3.42.77-7,1.09-10.48,1.61Z"/></g></g></svg>